<mxfile host="app.diagrams.net" modified="2022-11-29T11:23:49.480Z" agent="5.0 (X11)" etag="OMQvRYTcG0OkYIDSa4jR" version="20.6.0" type="github">
  <diagram name="Page-1" id="929967ad-93f9-6ef4-fab6-5d389245f69c">
    <mxGraphModel dx="1348" dy="793" grid="1" gridSize="10" guides="1" tooltips="1" connect="1" arrows="1" fold="1" page="1" pageScale="1.5" pageWidth="1169" pageHeight="826" background="none" math="0" shadow="0">
      <root>
        <mxCell id="0" style=";html=1;" />
        <mxCell id="1" style=";html=1;" parent="0" />
        <mxCell id="1672d66443f91eb5-1" value="" style="html=1;strokeWidth=1;shape=mxgraph.sysml.package;html=1;overflow=fill;whiteSpace=wrap;fillColor=none;gradientColor=none;fontSize=12;align=center;labelX=327.64;" parent="1" vertex="1">
          <mxGeometry x="140" y="280" width="750" height="560" as="geometry" />
        </mxCell>
        <mxCell id="1672d66443f91eb5-2" value="ui" style="shape=folder;tabWidth=80;tabHeight=20;tabPosition=left;strokeWidth=1;html=1;whiteSpace=wrap;align=center;fontSize=12;fontStyle=1" parent="1" vertex="1">
          <mxGeometry x="437" y="355" width="160" height="90" as="geometry" />
        </mxCell>
        <mxCell id="1672d66443f91eb5-23" value="Title" style="text;strokeColor=none;fillColor=none;html=1;fontSize=24;fontStyle=1;verticalAlign=middle;align=center;" parent="1" vertex="1">
          <mxGeometry x="120" y="40" width="1510" height="40" as="geometry" />
        </mxCell>
        <mxCell id="hn-bOfwDesO3eSsdbKVh-1" value="sprites" style="shape=folder;fontStyle=1;spacingTop=10;tabWidth=40;tabHeight=14;tabPosition=left;html=1;" vertex="1" parent="1">
          <mxGeometry x="420" y="520" width="110" height="85" as="geometry" />
        </mxCell>
        <mxCell id="hn-bOfwDesO3eSsdbKVh-4" value="&lt;p style=&quot;margin:0px;margin-top:4px;text-align:center;&quot;&gt;&lt;b&gt;Actions&lt;/b&gt;&lt;br&gt;&lt;/p&gt;&lt;hr size=&quot;1&quot;&gt;&lt;div style=&quot;height:2px;&quot;&gt;&lt;/div&gt;" style="verticalAlign=top;align=left;overflow=fill;fontSize=12;fontFamily=Helvetica;html=1;" vertex="1" parent="1">
          <mxGeometry x="650" y="535" width="140" height="60" as="geometry" />
        </mxCell>
        <mxCell id="hn-bOfwDesO3eSsdbKVh-5" value="&lt;p style=&quot;margin:0px;margin-top:4px;text-align:center;&quot;&gt;&lt;b&gt;Current_Decision&lt;/b&gt;&lt;/p&gt;&lt;hr size=&quot;1&quot;&gt;&lt;div style=&quot;height:2px;&quot;&gt;&lt;/div&gt;" style="verticalAlign=top;align=left;overflow=fill;fontSize=12;fontFamily=Helvetica;html=1;" vertex="1" parent="1">
          <mxGeometry x="240" y="640" width="140" height="60" as="geometry" />
        </mxCell>
        <mxCell id="hn-bOfwDesO3eSsdbKVh-6" value="&lt;p style=&quot;margin:0px;margin-top:4px;text-align:center;&quot;&gt;&lt;b&gt;Current_Text&lt;/b&gt;&lt;/p&gt;&lt;hr size=&quot;1&quot;&gt;&lt;div style=&quot;height:2px;&quot;&gt;&lt;/div&gt;" style="verticalAlign=top;align=left;overflow=fill;fontSize=12;fontFamily=Helvetica;html=1;" vertex="1" parent="1">
          <mxGeometry x="180" y="520" width="140" height="60" as="geometry" />
        </mxCell>
        <mxCell id="hn-bOfwDesO3eSsdbKVh-7" value="combat" style="shape=folder;fontStyle=1;spacingTop=10;tabWidth=40;tabHeight=14;tabPosition=left;html=1;" vertex="1" parent="1">
          <mxGeometry x="530" y="640" width="180" height="70" as="geometry" />
        </mxCell>
        <mxCell id="hn-bOfwDesO3eSsdbKVh-11" value="" style="endArrow=block;dashed=1;endFill=0;endSize=12;html=1;rounded=0;exitX=0.75;exitY=1;exitDx=0;exitDy=0;exitPerimeter=0;entryX=0.45;entryY=0;entryDx=0;entryDy=0;entryPerimeter=0;" edge="1" parent="1" source="1672d66443f91eb5-2" target="hn-bOfwDesO3eSsdbKVh-4">
          <mxGeometry width="160" relative="1" as="geometry">
            <mxPoint x="610" y="590" as="sourcePoint" />
            <mxPoint x="770" y="590" as="targetPoint" />
            <Array as="points">
              <mxPoint x="557" y="480" />
              <mxPoint x="640" y="480" />
            </Array>
          </mxGeometry>
        </mxCell>
        <mxCell id="hn-bOfwDesO3eSsdbKVh-12" value="" style="endArrow=block;dashed=1;endFill=0;endSize=12;html=1;rounded=0;entryX=0.5;entryY=0;entryDx=0;entryDy=0;" edge="1" parent="1" target="hn-bOfwDesO3eSsdbKVh-6">
          <mxGeometry width="160" relative="1" as="geometry">
            <mxPoint x="450" y="450" as="sourcePoint" />
            <mxPoint x="360" y="470" as="targetPoint" />
            <Array as="points">
              <mxPoint x="450" y="480" />
              <mxPoint x="320" y="480" />
              <mxPoint x="250" y="480" />
            </Array>
          </mxGeometry>
        </mxCell>
        <mxCell id="hn-bOfwDesO3eSsdbKVh-13" value="" style="endArrow=block;dashed=1;endFill=0;endSize=12;html=1;rounded=0;exitX=0.5;exitY=1;exitDx=0;exitDy=0;exitPerimeter=0;entryX=0.532;entryY=0.141;entryDx=0;entryDy=0;entryPerimeter=0;" edge="1" parent="1" source="1672d66443f91eb5-2" target="hn-bOfwDesO3eSsdbKVh-1">
          <mxGeometry width="160" relative="1" as="geometry">
            <mxPoint x="610" y="590" as="sourcePoint" />
            <mxPoint x="770" y="590" as="targetPoint" />
            <Array as="points">
              <mxPoint x="517" y="490" />
            </Array>
          </mxGeometry>
        </mxCell>
        <mxCell id="hn-bOfwDesO3eSsdbKVh-14" value="" style="endArrow=block;dashed=1;endFill=0;endSize=12;html=1;rounded=0;exitX=0.25;exitY=1;exitDx=0;exitDy=0;exitPerimeter=0;entryX=0.5;entryY=0;entryDx=0;entryDy=0;" edge="1" parent="1" source="1672d66443f91eb5-2" target="hn-bOfwDesO3eSsdbKVh-5">
          <mxGeometry width="160" relative="1" as="geometry">
            <mxPoint x="610" y="590" as="sourcePoint" />
            <mxPoint x="770" y="590" as="targetPoint" />
            <Array as="points">
              <mxPoint x="477" y="480" />
              <mxPoint x="420" y="500" />
            </Array>
          </mxGeometry>
        </mxCell>
        <mxCell id="hn-bOfwDesO3eSsdbKVh-15" value="" style="endArrow=block;dashed=1;endFill=0;endSize=12;html=1;rounded=0;exitX=0.586;exitY=1;exitDx=0;exitDy=0;exitPerimeter=0;entryX=0.503;entryY=0.2;entryDx=0;entryDy=0;entryPerimeter=0;" edge="1" parent="1" source="hn-bOfwDesO3eSsdbKVh-1" target="hn-bOfwDesO3eSsdbKVh-7">
          <mxGeometry width="160" relative="1" as="geometry">
            <mxPoint x="610" y="590" as="sourcePoint" />
            <mxPoint x="770" y="590" as="targetPoint" />
            <Array as="points">
              <mxPoint x="490" y="620" />
              <mxPoint x="621" y="620" />
            </Array>
          </mxGeometry>
        </mxCell>
        <mxCell id="hn-bOfwDesO3eSsdbKVh-16" value="" style="endArrow=block;dashed=1;endFill=0;endSize=12;html=1;rounded=0;" edge="1" parent="1">
          <mxGeometry width="160" relative="1" as="geometry">
            <mxPoint x="520" y="680" as="sourcePoint" />
            <mxPoint x="380" y="680" as="targetPoint" />
          </mxGeometry>
        </mxCell>
        <mxCell id="hn-bOfwDesO3eSsdbKVh-17" value="" style="endArrow=block;dashed=1;endFill=0;endSize=12;html=1;rounded=0;exitX=0.318;exitY=-0.05;exitDx=0;exitDy=0;exitPerimeter=0;entryX=0.5;entryY=1;entryDx=0;entryDy=0;" edge="1" parent="1" source="hn-bOfwDesO3eSsdbKVh-5" target="hn-bOfwDesO3eSsdbKVh-6">
          <mxGeometry width="160" relative="1" as="geometry">
            <mxPoint x="610" y="590" as="sourcePoint" />
            <mxPoint x="770" y="590" as="targetPoint" />
          </mxGeometry>
        </mxCell>
        <mxCell id="hn-bOfwDesO3eSsdbKVh-18" value="" style="endArrow=block;dashed=1;endFill=0;endSize=12;html=1;rounded=0;exitX=0.25;exitY=1;exitDx=0;exitDy=0;exitPerimeter=0;entryX=0.75;entryY=0;entryDx=0;entryDy=0;" edge="1" parent="1" source="hn-bOfwDesO3eSsdbKVh-1" target="hn-bOfwDesO3eSsdbKVh-5">
          <mxGeometry width="160" relative="1" as="geometry">
            <mxPoint x="610" y="590" as="sourcePoint" />
            <mxPoint x="770" y="590" as="targetPoint" />
          </mxGeometry>
        </mxCell>
        <mxCell id="hn-bOfwDesO3eSsdbKVh-19" value="" style="endArrow=block;dashed=1;endFill=0;endSize=12;html=1;rounded=0;entryX=0.75;entryY=1;entryDx=0;entryDy=0;exitX=0.643;exitY=1;exitDx=0;exitDy=0;exitPerimeter=0;" edge="1" parent="1" source="hn-bOfwDesO3eSsdbKVh-5" target="hn-bOfwDesO3eSsdbKVh-4">
          <mxGeometry width="160" relative="1" as="geometry">
            <mxPoint x="690" y="600" as="sourcePoint" />
            <mxPoint x="770" y="590" as="targetPoint" />
            <Array as="points">
              <mxPoint x="330" y="760" />
              <mxPoint x="755" y="760" />
            </Array>
          </mxGeometry>
        </mxCell>
        <mxCell id="hn-bOfwDesO3eSsdbKVh-21" value="" style="endArrow=block;dashed=1;endFill=0;endSize=12;html=1;rounded=0;entryX=0.146;entryY=0.983;entryDx=0;entryDy=0;entryPerimeter=0;" edge="1" parent="1" target="hn-bOfwDesO3eSsdbKVh-6">
          <mxGeometry width="160" relative="1" as="geometry">
            <mxPoint x="790" y="570" as="sourcePoint" />
            <mxPoint x="770" y="590" as="targetPoint" />
            <Array as="points">
              <mxPoint x="840" y="570" />
              <mxPoint x="840" y="780" />
              <mxPoint x="200" y="780" />
            </Array>
          </mxGeometry>
        </mxCell>
        <mxCell id="hn-bOfwDesO3eSsdbKVh-22" style="edgeStyle=orthogonalEdgeStyle;rounded=0;orthogonalLoop=1;jettySize=auto;html=1;" edge="1" parent="1" source="1672d66443f91eb5-1" target="1672d66443f91eb5-1">
          <mxGeometry relative="1" as="geometry" />
        </mxCell>
      </root>
    </mxGraphModel>
  </diagram>
</mxfile>
